<svg version="1.1" id="Calque_1" xmlns="http://www.w3.org/2000/svg" x="0" y="0" viewBox="0 0 260 260" xml:space="preserve"><style>.st2{fill:#182b73}</style><circle cx="125" cy="124.6" r="122" fill="#fff"/><path class="st2" d="M125 5.6c31.8 0 61.7 12.4 84.1 34.9C231.6 63 244 92.9 244 124.6s-12.4 61.7-34.9 84.1c-22.5 22.5-52.4 34.9-84.1 34.9s-61.7-12.4-84.1-34.9C18.4 186.3 6 156.4 6 124.6s12.4-61.7 34.9-84.1C63.3 18 93.2 5.6 125 5.6m0-6c-69 0-125 56-125 125s56 125 125 125 125-56 125-125S194-.4 125-.4z"/><path class="st2" d="M124.1 67.8l-40 40c-.5.5-.5 1.2 0 1.7l5.1 5.1 31-31v98.9h8.8V82.9l31.7 31.7 5.1-5.1c.5-.5.5-1.2 0-1.7l-40-40c-.4-.5-1.2-.5-1.7 0z"/></svg>