<svg xmlns="http://www.w3.org/2000/svg" viewBox="0 0 66 66"><path d="M1 34c0 17.7 14.3 32 32 32s32-14.3 32-32S50.7 2 33 2 1 16.3 1 34z" fill="#172875"/><path d="M34.9 40.8c1-.1 3-1.9 4-2 1-.1 2 .2 2.8.8l2.7 2 1.6 1.3c1.1.8 1.3 2.4.5 3.5 0 0 0 .1-.1.1l-3.1 4c-.2.3-.6.5-1 .4-13.5-1.2-24.2-12.3-24.2-25.7 0-2.4.3-4.7 1-7 .1-.2.3-.4.5-.5l5.9-.8c1.4-.3 2.8.6 3.1 2l.4 2 .6 3.3c.2 1 0 2-.5 2.8-.5.8-3.1 1.7-3.6 2.5 1.5 4.9 4.9 9 9.5 11.4v-.1z" fill="none" stroke="#fff" stroke-width="2" stroke-linecap="round" stroke-linejoin="round"/></svg>