<svg xmlns="http://www.w3.org/2000/svg" viewBox="0 0 1920 1920"><defs><style>.cls-1{fill:#acbfe6;}</style></defs><title>Asset 3</title><g id="Layer_2" data-name="Layer 2"><g id="Layer_1-2" data-name="Layer 1"><path class="cls-1" d="M960,0C430.65,0,0,430.65,0,960s430.65,960,960,960,960-430.65,960-960S1489.35,0,960,0Zm0,1887.46C448.6,1887.46,32.54,1471.4,32.54,960S448.6,32.54,960,32.54,1887.46,448.6,1887.46,960,1471.4,1887.46,960,1887.46Z"/><path class="cls-1" d="M852.64,145.25l-7.37-56.47q-12.59,1.65-25,3.64l9,56.23Q840.88,146.79,852.64,145.25Z"/><path class="cls-1" d="M899.75,140.48l-4.11-56.8q-12.66.91-25.23,2.19l5.76,56.66Q887.9,141.33,899.75,140.48Z"/><path class="cls-1" d="M805.9,152.73,795.27,96.78q-12.48,2.37-24.81,5.08l12.25,55.62Q794.24,154.93,805.9,152.73Z"/><path class="cls-1" d="M947.05,138.4l-.89-56.94q-12.67.2-25.26.75l2.51,56.89Q935.19,138.59,947.05,138.4Z"/><path class="cls-1" d="M759.66,162.89l-13.85-55.24q-12.3,3.09-24.46,6.51L736.78,169Q748.15,165.79,759.66,162.89Z"/><path class="cls-1" d="M326.92,436.14l-43.85-36.32q-8.08,9.74-15.88,19.72l44.87,35.07Q319.37,445.28,326.92,436.14Z"/><path class="cls-1" d="M297.75,473.48l-45.87-33.75q-7.5,10.2-14.72,20.62L284,492.78Q290.74,483,297.75,473.48Z"/><path class="cls-1" d="M714.1,175.72l-17-54.34q-12.1,3.8-24,7.92l18.59,53.83Q702.77,179.28,714.1,175.72Z"/><path class="cls-1" d="M358.18,400.53l-41.71-38.77q-8.61,9.27-17,18.78l42.79,37.58Q350.11,409.21,358.18,400.53Z"/><path class="cls-1" d="M186.49,682.06,132.9,662.79q-4.29,12-8.24,24l54.12,17.7Q182.49,693.22,186.49,682.06Z"/><path class="cls-1" d="M391.4,366.8,352,325.69q-9.13,8.76-18,17.78l40.57,40Q382.85,375,391.4,366.8Z"/><path class="cls-1" d="M203.84,637.89l-52.37-22.38q-5,11.67-9.63,23.52l53,20.81Q199.19,648.79,203.84,637.89Z"/><path class="cls-1" d="M223.71,594.8l-51-25.37q-5.65,11.36-11,22.9l51.72,23.85Q218.44,605.41,223.71,594.8Z"/><path class="cls-1" d="M270.76,512.45,223,481.39q-6.92,10.64-13.52,21.46l48.6,29.66Q264.29,522.39,270.76,512.45Z"/><path class="cls-1" d="M625.64,209.18l-23.19-52q-11.55,5.16-22.92,10.62l24.7,51.32Q614.85,214,625.64,209.18Z"/><path class="cls-1" d="M669.34,191.19l-20.13-53.27q-11.88,4.49-23.57,9.3l21.7,52.65Q658.26,195.39,669.34,191.19Z"/><path class="cls-1" d="M583.11,229.64l-26.18-50.57Q545.7,184.88,534.67,191l27.6,49.81Q572.59,235.09,583.11,229.64Z"/><path class="cls-1" d="M426.5,335l-37-43.3q-9.63,8.22-19,16.71l38.22,42.22Q417.51,342.73,426.5,335Z"/><path class="cls-1" d="M463.34,305.34,428.9,260q-10.08,7.65-19.93,15.59l35.74,44.34Q453.92,312.48,463.34,305.34Z"/><path class="cls-1" d="M541.77,252.55l-29-49q-10.87,6.44-21.56,13.19l30.43,48.14Q531.6,258.58,541.77,252.55Z"/><path class="cls-1" d="M501.82,277.8,470,230.56q-10.49,7.06-20.76,14.41l33.13,46.32Q492,284.4,501.82,277.8Z"/><path class="cls-1" d="M246.05,552.93,196.6,524.68q-6.28,11-12.26,22.2l50.25,26.81Q240.17,563.22,246.05,552.93Z"/><path class="cls-1" d="M1684.7,572.35l50.19-26.91q-6-11.15-12.26-22.09l-49.4,28.34Q1679.11,561.93,1684.7,572.35Z"/><path class="cls-1" d="M1705.81,614.59l51.65-24q-5.31-11.49-11-22.77l-50.94,25.47Q1700.84,603.88,1705.81,614.59Z"/><path class="cls-1" d="M1661.17,531.36l48.58-29.74q-6.62-10.8-13.53-21.38l-47.67,31.15Q1655,521.28,1661.17,531.36Z"/><path class="cls-1" d="M1724.42,658l53-20.92q-4.65-11.78-9.63-23.36l-52.32,22.48Q1720.07,647,1724.42,658Z"/><path class="cls-1" d="M1577,417.31l42.75-37.63q-8.36-9.49-17-18.75l-41.65,38.84Q1569.19,408.43,1577,417.31Z"/><path class="cls-1" d="M1607.25,453.72l44.82-35.13q-7.8-10-15.88-19.68l-43.81,36.38Q1599.94,444.4,1607.25,453.72Z"/><path class="cls-1" d="M1635.33,491.77l46.78-32.48q-7.23-10.4-14.73-20.56l-45.82,33.81Q1628.58,482.05,1635.33,491.77Z"/><path class="cls-1" d="M1773.08,840.56l56.35-8.24q-1.85-12.54-4-25l-56.1,9.83Q1771.36,828.81,1773.08,840.56Z"/><path class="cls-1" d="M1778.55,887.59l56.73-5q-1.11-12.64-2.56-25.17L1776.15,864Q1777.52,875.76,1778.55,887.59Z"/><path class="cls-1" d="M1740.56,702.48l54.07-17.86q-4-12-8.29-23.93l-53.53,19.41Q1736.85,691.21,1740.56,702.48Z"/><path class="cls-1" d="M1781.32,934.87l56.92-1.71q-.39-12.7-1.12-25.29l-56.86,3.33Q1781,923,1781.32,934.87Z"/><path class="cls-1" d="M1764.92,793.94l55.77-11.51q-2.57-12.4-5.44-24.69l-55.44,13Q1762.53,782.3,1764.92,793.94Z"/><path class="cls-1" d="M1754.06,747.85l55-14.7q-3.25-12.25-6.87-24.36l-54.58,16.26C1749.88,732.61,1752,740.21,1754.06,747.85Z"/><path class="cls-1" d="M1397.26,264.18,1427.62,216q-10.71-6.76-21.65-13.22l-29,49.05Q1387.24,257.86,1397.26,264.18Z"/><path class="cls-1" d="M1196.42,113.53q-12.17-3.39-24.5-6.44l-13.68,55.28q11.52,2.85,22.88,6Z"/><path class="cls-1" d="M1147.28,101.37q-12.35-2.7-24.84-5l-10.47,56q11.65,2.19,23.2,4.69Z"/><path class="cls-1" d="M1244.89,128.58q-12-4.13-24.19-7.9l-16.85,54.4q11.36,3.53,22.56,7.36Z"/><path class="cls-1" d="M1292.42,146.42q-11.73-4.8-23.62-9.27l-20,53.31q11.13,4.18,22.12,8.68Z"/><path class="cls-1" d="M1047.26,85.63q-12.55-1.23-25.22-2.12l-4,56.81q11.85.84,23.61,2Z"/><path class="cls-1" d="M1097.49,92.05q-12.48-2-25.08-3.57L1065.2,145q11.76,1.5,23.42,3.34Z"/><path class="cls-1" d="M1338.83,167q-11.43-5.48-23.06-10.62l-23.07,52.06q10.86,4.81,21.55,9.93Z"/><path class="cls-1" d="M1436.66,290.6l33.06-46.37q-10.32-7.36-20.85-14.42l-31.71,47.3Q1427,283.71,1436.66,290.6Z"/><path class="cls-1" d="M1474.41,319.21l35.69-44.38q-9.87-7.93-20-15.59l-34.4,45.39Q1465.18,311.78,1474.41,319.21Z"/><path class="cls-1" d="M1510.48,350l38.17-42.27q-9.4-8.49-19.05-16.71l-36.93,43.36Q1501.7,342,1510.48,350Z"/><path class="cls-1" d="M996.76,82.11q-12.6-.51-25.3-.68l-.71,56.94q11.88.16,23.68.64Z"/><path class="cls-1" d="M1544.71,382.67l40.53-40q-8.9-9-18-17.76l-39.36,41.16Q1536.4,374.25,1544.71,382.67Z"/><path class="cls-1" d="M1356.43,240.08,1384,190.23q-11.1-6.14-22.39-11.94l-26.06,50.63Q1346,234.35,1356.43,240.08Z"/><path class="cls-1" d="M796.79,1823.5q12.42,2.34,25,4.32l8.9-56.25q-11.7-1.85-23.31-4Z"/><path class="cls-1" d="M1635.63,1427.8l46.76,32.5q7.24-10.42,14.17-21.06l-47.72-31.08Q1642.38,1418.07,1635.63,1427.8Z"/><path class="cls-1" d="M1474.71,1600.55l35.72,44.35q9.85-7.94,19.47-16.13l-37-43.33Q1484,1593.12,1474.71,1600.55Z"/><path class="cls-1" d="M1661.51,1388.08l48.56,29.76Q1716.7,1407,1723,1396l-49.42-28.3Q1667.7,1378,1661.51,1388.08Z"/><path class="cls-1" d="M1577.24,1502.41l42.73,37.64q8.37-9.51,16.47-19.26l-43.81-36.39Q1585.05,1493.51,1577.24,1502.41Z"/><path class="cls-1" d="M1685.06,1347l50.23,26.85q6-11.16,11.64-22.53l-51-25.41Q1690.67,1336.51,1685.06,1347Z"/><path class="cls-1" d="M1510.75,1569.8l38.14,42.29q9.4-8.49,18.55-17.24l-39.37-41.15Q1519.54,1561.86,1510.75,1569.8Z"/><path class="cls-1" d="M1544.94,1537.09l40.55,40q8.88-9,17.51-18.26L1561.33,1520Q1553.26,1528.67,1544.94,1537.09Z"/><path class="cls-1" d="M1607.48,1466l44.87,35.07q7.8-10,15.31-20.16l-45.82-33.81Q1614.79,1456.62,1607.48,1466Z"/><path class="cls-1" d="M1741,1216.15l54.12,17.75q3.93-12,7.54-24.18L1748,1193.56Q1744.67,1204.93,1741,1216.15Z"/><path class="cls-1" d="M650.49,1782.57q11.88,4.47,23.9,8.6l18.53-53.85q-11.25-3.87-22.37-8Z"/><path class="cls-1" d="M603.52,1763.31q11.6,5.16,23.35,10l21.59-52.71q-11-4.49-21.82-9.31Z"/><path class="cls-1" d="M171.76,727.13,117.14,711q-3.58,12.13-6.81,24.41l55.06,14.51Q168.42,738.47,171.76,727.13Z"/><path class="cls-1" d="M698.53,1799.07q12.09,3.78,24.32,7.19l15.33-54.85q-11.41-3.18-22.68-6.7Z"/><path class="cls-1" d="M1706.21,1304.49l51.71,23.88q5.31-11.5,10.31-23.18l-52.36-22.4Q1711.19,1293.72,1706.21,1304.49Z"/><path class="cls-1" d="M1724.89,1260.84l53,20.85q4.65-11.81,9-23.76l-53.58-19.31Q1729.24,1249.8,1724.89,1260.84Z"/><path class="cls-1" d="M1397.78,1655.49l30.38,48.18q10.71-6.76,21.19-13.8l-31.76-47.27Q1407.8,1649.19,1397.78,1655.49Z"/><path class="cls-1" d="M897.18,1836.43q12.6.88,25.29,1.43l2.38-56.9q-11.85-.49-23.62-1.34Z"/><path class="cls-1" d="M1437,1629.15l33.13,46.32q10.29-7.35,20.35-15l-34.4-45.38Q1446.66,1622.25,1437,1629.15Z"/><path class="cls-1" d="M1136.58,1762.68l12.2,55.63q12.39-2.73,24.64-5.76l-13.77-55.27Q1148.18,1760.15,1136.58,1762.68Z"/><path class="cls-1" d="M948.55,1781.62l-.81,56.94q6.12.09,12.26.08c4.37,0,8.72,0,13.08-.09l-.86-57C964.33,1781.72,956.42,1781.73,948.55,1781.62Z"/><path class="cls-1" d="M995.88,1780.92l2.43,56.91q12.69-.55,25.27-1.45l-4.05-56.81Q1007.75,1780.43,995.88,1780.92Z"/><path class="cls-1" d="M1043.12,1777.54l5.69,56.66q12.63-1.26,25.15-2.89l-7.32-56.47Q1054.92,1776.36,1043.12,1777.54Z"/><path class="cls-1" d="M1090,1771.48l9,56.23q12.51-2,24.91-4.34l-10.55-56Q1101.77,1769.6,1090,1771.48Z"/><path class="cls-1" d="M1182.5,1751.23l15.43,54.82q12.19-3.42,24.26-7.19l-17-54.36Q1193.93,1748,1182.5,1751.23Z"/><path class="cls-1" d="M1357.1,1679.56l27.56,49.84q11.07-6.12,21.94-12.56l-29-49Q1367.45,1673.84,1357.1,1679.56Z"/><path class="cls-1" d="M747.34,1812.74q12.27,3,24.66,5.74l12.11-55.65q-11.58-2.52-23.05-5.38Z"/><path class="cls-1" d="M1754.42,1170.79l55.06,14.53q3.23-12.22,6.12-24.58l-55.46-12.93Q1757.44,1159.36,1754.42,1170.79Z"/><path class="cls-1" d="M1272,1720.4l21.65,52.67q11.68-4.8,23.2-9.92l-23.15-52Q1282.93,1715.91,1272,1720.4Z"/><path class="cls-1" d="M846.84,1831.42q12.51,1.61,25.14,2.86l5.63-56.66q-11.82-1.18-23.54-2.69Z"/><path class="cls-1" d="M1315.12,1701.2l24.63,51.36q11.41-5.47,22.64-11.27l-26.14-50.6Q1325.78,1696.09,1315.12,1701.2Z"/><path class="cls-1" d="M1227.69,1737.12l18.57,53.84q12-4.14,23.81-8.59l-20.1-53.29Q1238.92,1733.25,1227.69,1737.12Z"/><path class="cls-1" d="M1781.69,958.51V960q0,11.88-.34,23.69l56.94,1.61q.35-12.6.35-25.3v-1.49Z"/><path class="cls-1" d="M298,1446.87l-45.84,33.78q7.5,10.2,15.29,20.14l44.86-35.06Q305,1456.39,298,1446.87Z"/><path class="cls-1" d="M271.06,1408l-47.7,31.12q6.9,10.57,14.1,21l46.8-32.44Q277.52,1417.93,271.06,1408Z"/><path class="cls-1" d="M224.13,1326l-51,25.41q5.64,11.31,11.59,22.43L235,1347Q229.4,1336.61,224.13,1326Z"/><path class="cls-1" d="M246.4,1367.68,197,1396q6.28,11,12.87,21.75L258.44,1388Q252.29,1377.94,246.4,1367.68Z"/><path class="cls-1" d="M327.17,1484.16l-43.86,36.32q8.08,9.76,16.43,19.26l42.79-37.58Q334.73,1493.27,327.17,1484.16Z"/><path class="cls-1" d="M426.8,1585.22l-37,43.28q9.65,8.25,19.51,16.18L445,1600.34Q435.8,1592.92,426.8,1585.22Z"/><path class="cls-1" d="M463.69,1614.94l-34.44,45.35q10.1,7.67,20.42,15L482.76,1629Q473.12,1622.1,463.69,1614.94Z"/><path class="cls-1" d="M358.41,1519.71l-41.69,38.8q8.63,9.27,17.51,18.28l40.56-40Q366.48,1528.37,358.41,1519.71Z"/><path class="cls-1" d="M502.26,1642.49l-31.78,47.26q10.51,7.07,21.24,13.84l30.41-48.15Q512.1,1649.11,502.26,1642.49Z"/><path class="cls-1" d="M391.63,1553.42l-39.36,41.16q9.14,8.73,18.51,17.22L409,1569.58Q400.19,1561.62,391.63,1553.42Z"/><path class="cls-1" d="M204.3,1283.2,152,1305.6q5,11.64,10.27,23.08l51.68-23.92Q209,1294.07,204.3,1283.2Z"/><path class="cls-1" d="M159.69,772.91,104.23,760q-2.88,12.32-5.39,24.75L154.66,796Q157,784.42,159.69,772.91Z"/><path class="cls-1" d="M143.6,866.18,87,859.74q-1.42,12.54-2.5,25.2l56.74,4.8Q142.28,877.92,143.6,866.18Z"/><path class="cls-1" d="M139.61,913.36l-56.86-3.17q-.7,12.6-1.06,25.28L138.62,937Q139,925.16,139.61,913.36Z"/><path class="cls-1" d="M138.3,960.72l-57,0q0,12.71.38,25.31l56.93-1.67Q138.32,972.62,138.3,960.72Z"/><path class="cls-1" d="M1778.68,1031l56.74,4.89q1.08-12.58,1.79-25.27l-56.85-3.21Q1779.7,1019.21,1778.68,1031Z"/><path class="cls-1" d="M150.29,819.32l-56.11-9.7q-2.16,12.46-4,25l56.38,8Q148.29,830.95,150.29,819.32Z"/><path class="cls-1" d="M187,1239.22l-53.56,19.37q4.31,11.92,8.95,23.68l53-20.88Q191,1250.38,187,1239.22Z"/><path class="cls-1" d="M150.54,1102.11l-56.1,9.82q2.19,12.48,4.71,24.86l55.8-11.41Q152.58,1113.8,150.54,1102.11Z"/><path class="cls-1" d="M139.69,1008.08l-56.86,3.29q.73,12.68,1.82,25.23l56.74-4.89Q140.37,1020,139.69,1008.08Z"/><path class="cls-1" d="M160,1148.5l-55.44,13q2.9,12.36,6.14,24.58l55.05-14.62Q162.73,1160,160,1148.5Z"/><path class="cls-1" d="M143.76,1055.26l-56.57,6.55q1.45,12.6,3.27,25.1l56.36-8.17Q145.13,1067.06,143.76,1055.26Z"/><path class="cls-1" d="M172.18,1194.26l-54.6,16.2q3.61,12.18,7.56,24.18l54.11-17.78Q175.55,1205.64,172.18,1194.26Z"/><path class="cls-1" d="M583.86,1690.75l-26.11,50.61q11.26,5.82,22.72,11.3l24.63-51.34Q594.41,1696.19,583.86,1690.75Z"/><path class="cls-1" d="M1765.19,1124.65,1821,1136q2.52-12.39,4.69-24.9l-56.11-9.73Q1767.56,1113.09,1765.19,1124.65Z"/><path class="cls-1" d="M1773.29,1078l56.36,8.11q1.8-12.51,3.25-25.12l-56.58-6.47Q1775,1066.35,1773.29,1078Z"/><path class="cls-1" d="M542.35,1667.8l-29,49q10.9,6.43,22,12.59l27.57-49.83Q552.56,1673.84,542.35,1667.8Z"/><path class="cls-1" d="M179,960c0,430.65,350.37,781,781,781s781-350.37,781-781S1390.65,179,960,179,179,529.35,179,960Zm781,756.61a752.49,752.49,0,0,1-439.41-141l134.53-110.73h604.47l137,112.75A752.42,752.42,0,0,1,960,1716.61Zm456.83-153.91c-.07-.06-.13-.14-.2-.21l-144.9-119.26a12.27,12.27,0,0,0-7.76-2.78H650.74a12.24,12.24,0,0,0-7.75,2.78L503.37,1558.15a12.14,12.14,0,0,0-2.45,2.83,762.52,762.52,0,0,1-180.85-197.77c32.39,1,176.78,1.4,358.67,1.4,336.19,0,800.26-1.21,921.28-1.55A762.41,762.41,0,0,1,1416.83,1562.7ZM1097,873a12.2,12.2,0,0,0-17.26,17.26,58.13,58.13,0,0,1,0,82.22,12.09,12.09,0,0,0-2.1,3.16l-74-74,171.4-171.4,171,171-171.4,171.39-80.83-80.83a12.25,12.25,0,0,0,3.16-2.1A82.54,82.54,0,0,0,1097,873Zm77.4,234.47,50.58,50.58H1123.84Zm17.93-17.14L1363.75,919l62,62v177.11H1260.08Zm233.39-513.83V946.47l-53.35-53.36,0,0L1183.73,704.44a12.2,12.2,0,0,0-17.26,0L977.82,893.09a12.2,12.2,0,0,0,0,17.25L1157.45,1090l-68.12,68.12H494.25v-610h931.5Zm-931.5,606h931.5v16.27H494.25Zm434.55,40.68h62.39v65.36H928.8Zm225.79,92.37v23.84H765.41v-23.84ZM960,203.39c413.12,0,749.91,332.82,756.46,744.41H1520.39v24.4h196.07a751.78,751.78,0,0,1-101.6,366.41c-123.19.35-277.28.73-435.87,1v-36.29a12.21,12.21,0,0,0-12.2-12.21H1015.6v-68H1438a12.21,12.21,0,0,0,12.2-12.21V535.86a12.2,12.2,0,0,0-12.2-12.2H482a12.2,12.2,0,0,0-12.2,12.2V1211a12.21,12.21,0,0,0,12.2,12.21H904.4v68H753.21a12.21,12.21,0,0,0-12.2,12.21v36.85c-232.54.11-411.32-.24-423.73-1.47a12.14,12.14,0,0,0-10.13,3.28A751.8,751.8,0,0,1,203.54,972.2H399.61V947.8H203.54C210.09,536.21,546.88,203.39,960,203.39Z"/><path class="cls-1" d="M906.45,838.44a11.37,11.37,0,0,0,1,1.56,11,11,0,0,0,1.57,1l24.53,24.54a12.2,12.2,0,0,0,17.26-17.26l-17.21-17.21,171.44-171.44,17.21,17.21a12.2,12.2,0,0,0,17.26-17.26l-53.37-53.37a12.2,12.2,0,1,0-17.26,17.26l18.91,18.9L916.37,813.86,897.47,795a12.2,12.2,0,0,0-17.26,17.25Z"/><path class="cls-1" d="M760.24,1563.61h399.51a12.21,12.21,0,0,0,0-24.41H760.24a12.21,12.21,0,0,0,0,24.41Z"/><path class="cls-1" d="M1200.43,1596.91H719.57a12.21,12.21,0,1,0,0,24.41h480.86a12.21,12.21,0,0,0,0-24.41Z"/><path class="cls-1" d="M582.47,674H827.76a12.21,12.21,0,0,0,0-24.41H582.47a12.21,12.21,0,0,0,0,24.41Z"/><path class="cls-1" d="M582.47,739h202a12.21,12.21,0,1,0,0-24.41h-202a12.21,12.21,0,0,0,0,24.41Z"/><path class="cls-1" d="M582.47,803.89H770.05a12.21,12.21,0,0,0,0-24.41H582.47a12.21,12.21,0,0,0,0,24.41Z"/></g></g></svg>