<svg xmlns="http://www.w3.org/2000/svg" viewBox="0 0 1920 1920"><defs><style>.cls-1{fill:#acbfe6;}</style></defs><title>Asset 2</title><g id="Layer_2" data-name="Layer 2"><g id="Layer_1-2" data-name="Layer 1"><path class="cls-1" d="M547,693.83v617a40.87,40.87,0,0,0,40.82,40.84H1333a40.88,40.88,0,0,0,40.83-40.84V653.44a44.21,44.21,0,0,0-44.16-44.16h-61.09V564.15a44.64,44.64,0,1,0-89.28,0v45.13H741.55V564.15a44.65,44.65,0,0,0-89.29,0v45.13H591.18A44.21,44.21,0,0,0,547,653.44Zm802.36,570a19.77,19.77,0,0,1-19.75,19.75H591.18a19.78,19.78,0,0,1-19.76-19.75v-471h778Zm0,47a16.44,16.44,0,0,1-16.42,16.43H587.84a16.45,16.45,0,0,1-16.42-16.43v-7.61a43.91,43.91,0,0,0,19.76,4.72h738.45a43.87,43.87,0,0,0,19.75-4.72ZM1203.66,609.28V564.15a20.24,20.24,0,0,1,40.47,0V675.73a20.21,20.21,0,0,1-40.42.39c0-.16,0-.31,0-.47V609.28Zm20.24,111a44.51,44.51,0,0,0,31.87-13.44,32.19,32.19,0,0,1-63.14.61A44.5,44.5,0,0,0,1223.9,720.29Zm-547.23-111V564.15a20.24,20.24,0,0,1,40.47,0v111.5c0,.37-.09.71-.11,1.08a20.19,20.19,0,0,1-40.36-1.08V609.28Zm20.23,111a44.41,44.41,0,0,0,30.15-11.81,32.1,32.1,0,0,1-62.92-2.62A44.5,44.5,0,0,0,696.9,720.29ZM571.42,653.44a19.79,19.79,0,0,1,19.76-19.76h61.08v31a56.67,56.67,0,1,0,89.29,2.8V633.68h437.71v32.76a56.61,56.61,0,1,0,89.28-.68V633.68h61.09a19.78,19.78,0,0,1,19.75,19.76v115h-778v-115Z"/><path class="cls-1" d="M1175.29,950.36l-96.93-97-161,161-78.94-79-96.91,96.93L917.4,1208.29ZM838.46,970l78.94,79,161-161,62.39,62.4L917.4,1173.78,776.06,1032.43Z"/><path class="cls-1" d="M960,0C430.65,0,0,430.65,0,960s430.65,960,960,960,960-430.65,960-960S1489.35,0,960,0Zm0,1887.46C448.6,1887.46,32.54,1471.4,32.54,960S448.6,32.54,960,32.54,1887.46,448.6,1887.46,960,1471.4,1887.46,960,1887.46Z"/><path class="cls-1" d="M625.65,209.17l-23.2-52q-11.55,5.15-22.92,10.61l24.7,51.32Q614.85,214,625.65,209.17Z"/><path class="cls-1" d="M426.5,335l-37-43.32q-9.63,8.22-19,16.72l38.22,42.22Q417.49,342.73,426.5,335Z"/><path class="cls-1" d="M501.8,277.81,470,230.55q-10.51,7.06-20.78,14.43l33.14,46.31Q492,284.4,501.8,277.81Z"/><path class="cls-1" d="M463.35,305.33,428.9,260q-10.08,7.66-19.93,15.6l35.75,44.33Q453.93,312.48,463.35,305.33Z"/><path class="cls-1" d="M669.34,191.19l-20.12-53.28q-11.88,4.49-23.58,9.31l21.69,52.65Q658.25,195.39,669.34,191.19Z"/><path class="cls-1" d="M541.78,252.55l-29-49q-10.86,6.45-21.54,13.19l30.43,48.14Q531.6,258.58,541.78,252.55Z"/><path class="cls-1" d="M583.1,229.65,557,179.06Q545.7,184.88,534.67,191l27.6,49.81Q572.59,235.09,583.1,229.65Z"/><path class="cls-1" d="M852.64,145.25l-7.37-56.47q-12.59,1.65-25.06,3.64l9,56.23Q840.88,146.79,852.64,145.25Z"/><path class="cls-1" d="M899.75,140.48l-4.11-56.8q-12.66.91-25.23,2.19l5.76,56.66Q887.92,141.33,899.75,140.48Z"/><path class="cls-1" d="M947.05,138.4l-.89-56.94q-12.67.2-25.26.75l2.51,56.89Q935.19,138.59,947.05,138.4Z"/><path class="cls-1" d="M714.1,175.72l-17-54.34q-12.1,3.8-24,7.92l18.59,53.83Q702.77,179.28,714.1,175.72Z"/><path class="cls-1" d="M805.91,152.73,795.26,96.78q-12.45,2.37-24.79,5.08l12.23,55.62Q794.25,154.93,805.91,152.73Z"/><path class="cls-1" d="M759.67,162.89l-13.86-55.24q-12.3,3.09-24.46,6.51L736.78,169Q748.17,165.79,759.67,162.89Z"/><path class="cls-1" d="M186.49,682.05l-53.6-19.25q-4.29,12-8.24,24l54.13,17.7Q182.49,693.21,186.49,682.05Z"/><path class="cls-1" d="M171.77,727.12,117.14,711q-3.57,12.12-6.81,24.38l55.06,14.53Q168.44,738.46,171.77,727.12Z"/><path class="cls-1" d="M223.71,594.78l-51-25.34q-5.64,11.35-11,22.89l51.7,23.85Q218.44,605.4,223.71,594.78Z"/><path class="cls-1" d="M159.69,772.92,104.24,760q-2.88,12.32-5.4,24.77L154.66,796Q157,784.42,159.69,772.92Z"/><path class="cls-1" d="M391.41,366.8,352,325.69q-9.12,8.76-18,17.78l40.57,40Q382.85,375,391.41,366.8Z"/><path class="cls-1" d="M150.29,819.3l-56.12-9.66q-2.15,12.43-3.94,25l56.38,8.08Q148.29,831,150.29,819.3Z"/><path class="cls-1" d="M143.6,866.21,87,859.71q-1.44,12.57-2.5,25.23l56.74,4.8Q142.27,877.94,143.6,866.21Z"/><path class="cls-1" d="M203.85,637.85l-52.4-22.3q-5,11.66-9.61,23.48l53,20.81Q199.2,648.77,203.85,637.85Z"/><path class="cls-1" d="M358.16,400.55l-41.67-38.81q-8.64,9.28-17,18.81l42.81,37.56Q350.1,409.22,358.16,400.55Z"/><path class="cls-1" d="M326.92,436.14l-43.86-36.32q-8.08,9.74-15.88,19.73l44.89,35.05Q319.36,445.27,326.92,436.14Z"/><path class="cls-1" d="M297.74,473.49l-45.85-33.77q-7.53,10.21-14.73,20.63L284,492.78Q290.72,483,297.74,473.49Z"/><path class="cls-1" d="M270.77,512.44,223,481.4q-6.9,10.62-13.5,21.43l48.59,29.69Q264.31,522.4,270.77,512.44Z"/><path class="cls-1" d="M246.05,552.94l-49.44-28.27q-6.3,11-12.27,22.21l50.24,26.81Q240.18,563.22,246.05,552.94Z"/><path class="cls-1" d="M1773.08,840.56l56.35-8.24q-1.85-12.54-4-25l-56.1,9.83Q1771.36,828.81,1773.08,840.56Z"/><path class="cls-1" d="M1684.7,572.35l50.19-26.91q-6-11.15-12.26-22.09l-49.4,28.34Q1679.11,561.93,1684.7,572.35Z"/><path class="cls-1" d="M1724.42,658l53-20.92q-4.65-11.78-9.63-23.36l-52.32,22.48Q1720.07,647,1724.42,658Z"/><path class="cls-1" d="M1661.17,531.36l48.58-29.74q-6.62-10.8-13.53-21.38l-47.67,31.15Q1655,521.28,1661.17,531.36Z"/><path class="cls-1" d="M1705.81,614.59l51.65-24q-5.31-11.49-11-22.77l-50.94,25.47Q1700.84,603.88,1705.81,614.59Z"/><path class="cls-1" d="M1607.25,453.72l44.82-35.13q-7.8-10-15.88-19.68l-43.81,36.38Q1599.94,444.4,1607.25,453.72Z"/><path class="cls-1" d="M1544.71,382.67l40.53-40q-8.9-9-18-17.76l-39.36,41.16Q1536.4,374.25,1544.71,382.67Z"/><path class="cls-1" d="M1577,417.31l42.75-37.63q-8.36-9.49-17-18.75l-41.65,38.84Q1569.19,408.43,1577,417.31Z"/><path class="cls-1" d="M1740.56,702.48l54.07-17.86q-4-12-8.29-23.93l-53.53,19.41Q1736.85,691.21,1740.56,702.48Z"/><path class="cls-1" d="M996.76,82.11q-12.6-.51-25.3-.68l-.71,56.94q11.88.16,23.68.64Z"/><path class="cls-1" d="M1781.32,934.87l56.92-1.71q-.39-12.7-1.12-25.29l-56.86,3.33Q1781,923,1781.32,934.87Z"/><path class="cls-1" d="M1778.55,887.59l56.73-5q-1.11-12.64-2.56-25.17L1776.15,864Q1777.52,875.76,1778.55,887.59Z"/><path class="cls-1" d="M1754.06,747.85l55-14.7q-3.25-12.25-6.87-24.36l-54.58,16.26C1749.88,732.61,1752,740.21,1754.06,747.85Z"/><path class="cls-1" d="M1764.92,793.94l55.77-11.51q-2.57-12.4-5.44-24.69l-55.44,13Q1762.53,782.3,1764.92,793.94Z"/><path class="cls-1" d="M139.61,913.39l-56.86-3.23q-.7,12.63-1.06,25.32L138.62,937Q139,925.17,139.61,913.39Z"/><path class="cls-1" d="M1292.42,146.42q-11.73-4.8-23.62-9.27l-20,53.31q11.13,4.18,22.12,8.68Z"/><path class="cls-1" d="M1196.42,113.53q-12.17-3.39-24.5-6.44l-13.68,55.28q11.52,2.85,22.88,6Z"/><path class="cls-1" d="M1244.89,128.58q-12-4.13-24.19-7.9l-16.85,54.4q11.36,3.53,22.56,7.36Z"/><path class="cls-1" d="M1510.48,350l38.17-42.27q-9.4-8.49-19.05-16.71l-36.93,43.36Q1501.7,342,1510.48,350Z"/><path class="cls-1" d="M1097.49,92.05q-12.48-2-25.08-3.57L1065.2,145q11.76,1.5,23.42,3.34Z"/><path class="cls-1" d="M1047.26,85.63q-12.55-1.23-25.22-2.12l-4,56.81q11.85.84,23.61,2Z"/><path class="cls-1" d="M1147.28,101.37q-12.35-2.7-24.84-5l-10.47,56q11.65,2.19,23.2,4.69Z"/><path class="cls-1" d="M1436.66,290.6l33.06-46.37q-10.32-7.36-20.85-14.42l-31.71,47.3Q1427,283.71,1436.66,290.6Z"/><path class="cls-1" d="M1474.41,319.21l35.69-44.38q-9.87-7.93-20-15.59l-34.4,45.39Q1465.18,311.78,1474.41,319.21Z"/><path class="cls-1" d="M1338.83,167q-11.43-5.48-23.06-10.62l-23.07,52.06q10.86,4.81,21.55,9.93Z"/><path class="cls-1" d="M1397.26,264.18,1427.62,216q-10.71-6.76-21.65-13.22l-29,49.05Q1387.24,257.86,1397.26,264.18Z"/><path class="cls-1" d="M1356.43,240.08,1384,190.23q-11.1-6.14-22.39-11.94l-26.06,50.63Q1346,234.35,1356.43,240.08Z"/><path class="cls-1" d="M1635.33,491.77l46.78-32.48q-7.23-10.4-14.73-20.56l-45.82,33.81Q1628.58,482.05,1635.33,491.77Z"/><path class="cls-1" d="M1397.78,1655.49l30.38,48.18q10.71-6.76,21.19-13.8l-31.76-47.27Q1407.8,1649.19,1397.78,1655.49Z"/><path class="cls-1" d="M1357.1,1679.56l27.56,49.84q11.07-6.12,21.94-12.56l-29-49Q1367.45,1673.84,1357.1,1679.56Z"/><path class="cls-1" d="M1272,1720.4l21.65,52.67q11.68-4.8,23.2-9.92l-23.15-52Q1282.93,1715.91,1272,1720.4Z"/><path class="cls-1" d="M948.54,1781.62l-.79,56.94q6.11.09,12.25.08,6.54,0,13.08-.09l-.86-57Q960.4,1781.78,948.54,1781.62Z"/><path class="cls-1" d="M1510.75,1569.8l38.14,42.29q9.4-8.49,18.55-17.24l-39.37-41.15Q1519.54,1561.86,1510.75,1569.8Z"/><path class="cls-1" d="M1474.71,1600.55l35.72,44.35q9.85-7.94,19.47-16.13l-37-43.33Q1484,1593.12,1474.71,1600.55Z"/><path class="cls-1" d="M1437,1629.15l33.13,46.32q10.29-7.35,20.35-15l-34.4-45.38Q1446.66,1622.25,1437,1629.15Z"/><path class="cls-1" d="M1136.58,1762.68l12.2,55.63q12.39-2.73,24.64-5.76l-13.77-55.27Q1148.18,1760.15,1136.58,1762.68Z"/><path class="cls-1" d="M1043.12,1777.54l5.69,56.66q12.63-1.26,25.15-2.89l-7.32-56.47Q1054.92,1776.36,1043.12,1777.54Z"/><path class="cls-1" d="M1090,1771.48l9,56.23q12.51-2,24.91-4.34l-10.55-56Q1101.77,1769.6,1090,1771.48Z"/><path class="cls-1" d="M995.88,1780.92l2.43,56.91q12.69-.55,25.27-1.45l-4.05-56.81Q1007.75,1780.43,995.88,1780.92Z"/><path class="cls-1" d="M1227.69,1737.12l18.57,53.84q12-4.14,23.81-8.59l-20.1-53.29Q1238.92,1733.25,1227.69,1737.12Z"/><path class="cls-1" d="M1182.5,1751.23l15.43,54.82q12.19-3.42,24.26-7.19l-17-54.36Q1193.93,1748,1182.5,1751.23Z"/><path class="cls-1" d="M1544.94,1537.09l40.55,40q8.88-9,17.51-18.26L1561.33,1520Q1553.26,1528.67,1544.94,1537.09Z"/><path class="cls-1" d="M1315.12,1701.2l24.63,51.36q11.41-5.47,22.64-11.27l-26.14-50.6Q1325.78,1696.09,1315.12,1701.2Z"/><path class="cls-1" d="M1765.19,1124.65,1821,1136q2.52-12.39,4.69-24.9l-56.11-9.73Q1767.56,1113.09,1765.19,1124.65Z"/><path class="cls-1" d="M1741,1216.15l54.12,17.75q3.93-12,7.54-24.18L1748,1193.56Q1744.67,1204.93,1741,1216.15Z"/><path class="cls-1" d="M1773.29,1078l56.36,8.11q1.8-12.51,3.25-25.12l-56.58-6.47Q1775,1066.35,1773.29,1078Z"/><path class="cls-1" d="M1754.42,1170.79l55.06,14.53q3.23-12.22,6.12-24.58l-55.46-12.93Q1757.44,1159.36,1754.42,1170.79Z"/><path class="cls-1" d="M1781.69,958.51V960q0,11.88-.34,23.69l56.94,1.61q.35-12.6.35-25.3v-1.49Z"/><path class="cls-1" d="M1778.68,1031l56.74,4.89q1.08-12.58,1.79-25.27l-56.85-3.21Q1779.7,1019.21,1778.68,1031Z"/><path class="cls-1" d="M1607.48,1466l44.87,35.07q7.8-10,15.31-20.16l-45.82-33.81Q1614.79,1456.62,1607.48,1466Z"/><path class="cls-1" d="M1661.51,1388.08l48.56,29.76Q1716.7,1407,1723,1396l-49.42-28.3Q1667.7,1378,1661.51,1388.08Z"/><path class="cls-1" d="M1724.89,1260.84l53,20.85q4.65-11.81,9-23.76l-53.58-19.31Q1729.24,1249.8,1724.89,1260.84Z"/><path class="cls-1" d="M1577.24,1502.41l42.73,37.64q8.37-9.51,16.47-19.26l-43.81-36.39Q1585.05,1493.51,1577.24,1502.41Z"/><path class="cls-1" d="M1635.63,1427.8l46.76,32.5q7.24-10.42,14.17-21.06l-47.72-31.08Q1642.38,1418.07,1635.63,1427.8Z"/><path class="cls-1" d="M138.3,960.69l-57,.11q0,12.69.39,25.28l56.91-1.67Q138.3,972.61,138.3,960.69Z"/><path class="cls-1" d="M1706.21,1304.49l51.71,23.88q5.31-11.5,10.31-23.18l-52.36-22.4Q1711.19,1293.72,1706.21,1304.49Z"/><path class="cls-1" d="M1685.06,1347l50.23,26.85q6-11.16,11.64-22.53l-51-25.41Q1690.67,1336.51,1685.06,1347Z"/><path class="cls-1" d="M298,1446.86l-45.83,33.8q7.5,10.18,15.28,20.13l44.87-35.06Q305,1456.4,298,1446.86Z"/><path class="cls-1" d="M271.06,1408l-47.7,31.12q6.9,10.59,14.11,21l46.78-32.46Q277.52,1417.92,271.06,1408Z"/><path class="cls-1" d="M224.12,1326l-51,25.41q5.66,11.31,11.6,22.43L235,1347Q229.4,1336.61,224.12,1326Z"/><path class="cls-1" d="M204.3,1283.2l-52.36,22.4q5,11.64,10.27,23.08l51.68-23.92Q209,1294.07,204.3,1283.2Z"/><path class="cls-1" d="M358.39,1519.7l-41.67,38.83q8.64,9.26,17.5,18.25l40.57-40Q366.47,1528.36,358.39,1519.7Z"/><path class="cls-1" d="M327.17,1484.16l-43.85,36.32q8.07,9.76,16.43,19.26l42.79-37.58Q334.73,1493.27,327.17,1484.16Z"/><path class="cls-1" d="M150.54,1102.09,94.45,1112q2.19,12.46,4.7,24.82L155,1125.4Q152.59,1113.81,150.54,1102.09Z"/><path class="cls-1" d="M391.63,1553.41l-39.34,41.17q9.12,8.73,18.48,17.22L409,1569.58Q400.2,1561.62,391.63,1553.41Z"/><path class="cls-1" d="M143.77,1055.3l-56.58,6.47q1.44,12.63,3.26,25.14l56.36-8.17Q145.13,1067.09,143.77,1055.3Z"/><path class="cls-1" d="M139.68,1008.07l-56.85,3.32q.73,12.66,1.82,25.21l56.74-4.89Q140.37,1019.94,139.68,1008.07Z"/><path class="cls-1" d="M172.17,1194.26l-54.59,16.2q3.6,12.18,7.57,24.2l54.09-17.82Q175.54,1205.63,172.17,1194.26Z"/><path class="cls-1" d="M160,1148.49l-55.44,13q2.91,12.35,6.14,24.54l55-14.58Q162.73,1160,160,1148.49Z"/><path class="cls-1" d="M187,1239.22l-53.55,19.37q4.31,11.92,8.95,23.7l53-20.92Q191,1250.38,187,1239.22Z"/><path class="cls-1" d="M246.43,1367.71,197,1396q6.28,11,12.88,21.78L258.45,1388Q252.29,1378,246.43,1367.71Z"/><path class="cls-1" d="M650.49,1782.57q11.87,4.47,23.9,8.6l18.53-53.85q-11.26-3.87-22.36-8Z"/><path class="cls-1" d="M796.79,1823.5q12.42,2.34,25,4.32l8.9-56.25q-11.71-1.86-23.32-4Z"/><path class="cls-1" d="M426.78,1585.21l-37,43.3q9.63,8.23,19.51,16.17L445,1600.34Q435.8,1592.9,426.78,1585.21Z"/><path class="cls-1" d="M747.34,1812.74q12.27,3,24.66,5.74l12.11-55.65q-11.58-2.52-23.06-5.38Z"/><path class="cls-1" d="M897.18,1836.43q12.62.88,25.3,1.43l2.38-56.9q-11.86-.49-23.63-1.34Z"/><path class="cls-1" d="M846.84,1831.42q12.51,1.61,25.13,2.86l5.64-56.66q-11.83-1.18-23.56-2.69Z"/><path class="cls-1" d="M698.52,1799.07q12.09,3.78,24.33,7.19l15.32-54.85q-11.4-3.18-22.67-6.7Z"/><path class="cls-1" d="M502.24,1642.48l-31.75,47.28q10.53,7.07,21.23,13.83l30.41-48.15Q512.08,1649.1,502.24,1642.48Z"/><path class="cls-1" d="M463.68,1614.93l-34.42,45.37q10.1,7.67,20.41,15L482.76,1629Q473.13,1622.09,463.68,1614.93Z"/><path class="cls-1" d="M542.37,1667.8l-29,49q10.9,6.45,22,12.6l27.56-49.83Q552.56,1673.84,542.37,1667.8Z"/><path class="cls-1" d="M603.51,1763.31q11.58,5.14,23.37,10l21.58-52.71q-11-4.49-21.81-9.31Z"/><path class="cls-1" d="M583.86,1690.75l-26.11,50.61q11.26,5.82,22.72,11.31l24.63-51.35Q594.39,1696.18,583.86,1690.75Z"/><path class="cls-1" d="M179,960c0,430.65,350.37,781,781,781s781-350.37,781-781S1390.65,179,960,179,179,529.35,179,960ZM960,203.39c417.2,0,756.61,339.41,756.61,756.61S1377.2,1716.61,960,1716.61,203.39,1377.2,203.39,960,542.8,203.39,960,203.39Z"/><rect class="cls-1" x="947.8" y="268.15" width="24.41" height="99.02"/><rect class="cls-1" x="947.8" y="1552.83" width="24.41" height="99.02"/><rect class="cls-1" x="1364.7" y="493.59" width="99.02" height="24.4" transform="translate(56.56 1148.14) rotate(-45)"/><rect class="cls-1" x="456.28" y="1402" width="99.02" height="24.4" transform="translate(-851.85 771.86) rotate(-45)"/><rect class="cls-1" x="1552.83" y="947.8" width="99.02" height="24.41"/><rect class="cls-1" x="268.15" y="947.8" width="99.02" height="24.41"/><rect class="cls-1" x="1402" y="1364.7" width="24.4" height="99.02" transform="translate(-585.78 1414.21) rotate(-45)"/><rect class="cls-1" x="493.59" y="456.29" width="24.4" height="99.02" transform="translate(-209.51 505.81) rotate(-45)"/><rect class="cls-1" x="697.27" y="317.62" width="24.41" height="65.48" transform="translate(-79.92 295.89) rotate(-22.33)"/><rect class="cls-1" x="1198.32" y="1536.9" width="24.41" height="65.48" transform="translate(-505.7 577.81) rotate(-22.34)"/><rect class="cls-1" x="1181.19" y="339.57" width="65.48" height="24.4" transform="translate(421.68 1336.51) rotate(-67.34)"/><rect class="cls-1" x="673.33" y="1556.03" width="65.48" height="24.4" transform="translate(-1013.14 1615.18) rotate(-67.33)"/><rect class="cls-1" x="1536.9" y="697.27" width="65.48" height="24.4" transform="translate(-151.87 650.13) rotate(-22.35)"/><rect class="cls-1" x="317.62" y="1198.32" width="65.48" height="24.41" transform="translate(-433.85 224.05) rotate(-22.34)"/><rect class="cls-1" x="1556.03" y="1181.19" width="24.4" height="65.48" transform="translate(-156.13 2193.51) rotate(-67.34)"/><rect class="cls-1" x="339.56" y="673.32" width="24.41" height="65.48" transform="translate(-435.32 758.65) rotate(-67.34)"/></g></g></svg>