<svg xmlns="http://www.w3.org/2000/svg" viewBox="0 0 1920 1920"><defs><style>.cls-1{fill:#acbfe6;}</style></defs><title>Asset 1</title><g id="Layer_2" data-name="Layer 2"><g id="Layer_1-2" data-name="Layer 1"><path class="cls-1" d="M1770,445.26c-2.06-3.23-4.16-6.42-6.25-9.62C1592.15,173.53,1296,0,960,0,655.37,0,383.45,142.65,207.46,364.63A955.28,955.28,0,0,0,0,960c0,529.35,430.65,960,960,960s960-430.65,960-960A954.19,954.19,0,0,0,1770,445.26ZM960,1887.46C448.6,1887.46,32.54,1471.4,32.54,960A923,923,0,0,1,251.46,362.27C421.73,160.76,676.15,32.54,960,32.54c313,0,590.34,155.93,758.37,394.16q26.16,37.1,48.7,76.78A921.76,921.76,0,0,1,1887.46,960C1887.46,1471.4,1471.4,1887.46,960,1887.46Z"/><path class="cls-1" d="M1047.26,85.63q-12.55-1.23-25.22-2.12l-4,56.81q11.85.84,23.61,2Z"/><path class="cls-1" d="M996.76,82.11q-12.6-.51-25.3-.68l-.71,56.94q11.88.16,23.68.64Z"/><path class="cls-1" d="M1097.49,92.05q-12.48-2-25.08-3.57L1065.2,145q11.76,1.5,23.42,3.34Z"/><path class="cls-1" d="M1147.28,101.37q-12.35-2.7-24.84-5l-10.47,56q11.65,2.19,23.2,4.69Z"/><path class="cls-1" d="M899.75,140.48l-4.11-56.8q-12.66.91-25.23,2.19l5.76,56.66Q887.92,141.33,899.75,140.48Z"/><path class="cls-1" d="M805.91,152.73,795.26,96.78q-12.45,2.37-24.79,5.08l12.23,55.62Q794.25,154.93,805.91,152.73Z"/><path class="cls-1" d="M947.05,138.4l-.89-56.94q-12.67.2-25.26.75l2.51,56.89Q935.19,138.59,947.05,138.4Z"/><path class="cls-1" d="M852.64,145.25l-7.37-56.47q-12.59,1.65-25.06,3.64l9,56.23Q840.88,146.79,852.64,145.25Z"/><path class="cls-1" d="M1474.41,319.21l35.69-44.38q-9.87-7.93-20-15.59l-34.4,45.39Q1465.18,311.78,1474.41,319.21Z"/><path class="cls-1" d="M1397.26,264.18,1427.62,216q-10.71-6.75-21.65-13.21l-29,49.05Q1387.24,257.86,1397.26,264.18Z"/><path class="cls-1" d="M146.81,1078.74q-1.68-11.65-3-23.44l-36.7,4.19-19.88,2.28q1.44,12.63,3.26,25.14l18.28-2.65Z"/><path class="cls-1" d="M1356.43,240.08,1384,190.23q-11.1-6.14-22.39-11.94l-26.06,50.63Q1346,234.35,1356.43,240.08Z"/><path class="cls-1" d="M759.67,162.89l-13.86-55.24q-12.3,3.09-24.46,6.51L736.78,169Q748.17,165.79,759.67,162.89Z"/><path class="cls-1" d="M1292.42,146.42q-11.73-4.8-23.62-9.27l-20,53.31q11.13,4.18,22.12,8.68Z"/><path class="cls-1" d="M1244.89,128.58q-12-4.13-24.19-7.9l-16.85,54.4q11.36,3.53,22.56,7.36Z"/><path class="cls-1" d="M1544.71,382.67l40.53-40q-8.9-9-18-17.76l-39.36,41.16Q1536.4,374.25,1544.71,382.67Z"/><path class="cls-1" d="M1436.66,290.6l33.06-46.37q-10.32-7.36-20.85-14.42l-31.71,47.3Q1427,283.71,1436.66,290.6Z"/><path class="cls-1" d="M1510.48,350l38.17-42.27q-9.4-8.49-19.05-16.71l-36.93,43.36Q1501.7,342,1510.48,350Z"/><path class="cls-1" d="M1196.42,113.53q-12.17-3.39-24.5-6.44l-13.68,55.28q11.52,2.85,22.88,6Z"/><path class="cls-1" d="M1338.83,167q-11.43-5.48-23.06-10.62l-23.07,52.06q10.86,4.81,21.55,9.93Z"/><path class="cls-1" d="M138.65,984.41q-.35-11.8-.35-23.72l-37.83.08-19.12,0q0,12.69.39,25.28l20.38-.59Z"/><path class="cls-1" d="M141.39,1031.71q-1-11.78-1.71-23.64l-35.9,2.09-21,1.23q.73,12.66,1.82,25.21l20.78-1.79Z"/><path class="cls-1" d="M155,1125.4q-2.37-11.6-4.42-23.31l-40.14,7.06-16,2.8q2.19,12.46,4.7,24.82l12.92-2.63Z"/><path class="cls-1" d="M146.61,842.71q1.68-11.76,3.68-23.41l-56.12-9.66c-1,5.63-1.81,11.31-2.68,17-.41,2.68-.87,5.33-1.26,8l1.82.26Z"/><path class="cls-1" d="M141.26,889.74q1-11.81,2.34-23.53l-49.84-5.72L87,859.71q-1.44,12.57-2.5,25.23l10.94.92Z"/><path class="cls-1" d="M138.62,937q.33-11.87,1-23.64L97.14,911l-14.39-.82q-.7,12.62-1.06,25.32l17.12.46Z"/><path class="cls-1" d="M1747.62,725.05c2.26,7.56,4.39,15.16,6.44,22.8l.74-.19,54.27-14.51q-3.25-12.25-6.87-24.36l-46.14,13.75Z"/><path class="cls-1" d="M1724.42,658,1760,643.89l17.37-6.86q-4.65-11.78-9.63-23.36l-6.35,2.73-46,19.75Q1720.07,647,1724.42,658Z"/><path class="cls-1" d="M189.29,1245.4c-.77-2.06-1.59-4.1-2.34-6.18l-11.14,4-42.41,15.34q4.31,11.92,8.95,23.7l53-20.92C193.24,1256.09,191.27,1250.74,189.29,1245.4Z"/><path class="cls-1" d="M1561.1,399.77q8.09,8.66,15.9,17.54l17.12-15.07,25.63-22.56q-8.36-9.49-17-18.75l-38.08,35.51Z"/><path class="cls-1" d="M374.55,383.43q8.29-8.43,16.86-16.63l-11-11.46L352,325.69q-9.12,8.76-18,17.78l13.83,13.62Z"/><path class="cls-1" d="M1732.81,680.1q4,11.11,7.75,22.38l16.79-5.54,37.28-12.32q-4-12-8.29-23.93l-27.68,10Z"/><path class="cls-1" d="M1729.64,1248.22c-.3.82-.61,1.63-.91,2.44-1.29,3.39-2.51,6.81-3.84,10.18l53,20.85q4.65-11.81,9-23.76l-53.58-19.31C1732.1,1241.84,1730.84,1245,1729.64,1248.22Z"/><path class="cls-1" d="M160,1148.49l-46.26,10.88-9.18,2.16q2.91,12.35,6.14,24.54l4.74-1.25,50.3-13.33Q162.73,1160,160,1148.49Z"/><path class="cls-1" d="M1607.25,453.72l44.82-35.13c-1.55-2-3.17-3.91-4.74-5.87-3.69-4.63-7.36-9.26-11.14-13.81l-11.3,9.39-32.51,27Q1599.94,444.4,1607.25,453.72Z"/><path class="cls-1" d="M1227.69,1737.12l18.57,53.84q12-4.14,23.81-8.6l-20.1-53.28Q1238.92,1733.25,1227.69,1737.12Z"/><path class="cls-1" d="M1272,1720.4l21.65,52.67q11.68-4.8,23.2-9.92l-23.15-52Q1282.93,1715.91,1272,1720.4Z"/><path class="cls-1" d="M1090,1771.48l9,56.23q12.51-2,24.91-4.34l-10.55-56Q1101.77,1769.6,1090,1771.48Z"/><path class="cls-1" d="M1182.5,1751.23l15.43,54.82q12.19-3.42,24.26-7.19l-17-54.36Q1193.93,1748,1182.5,1751.23Z"/><path class="cls-1" d="M1315.12,1701.2l24.63,51.36q11.41-5.47,22.64-11.27l-26.14-50.6Q1325.78,1696.09,1315.12,1701.2Z"/><path class="cls-1" d="M1136.58,1762.68l12.2,55.63q12.39-2.73,24.64-5.76l-13.77-55.27Q1148.18,1760.15,1136.58,1762.68Z"/><path class="cls-1" d="M1474.71,1600.55l35.72,44.35q9.85-7.94,19.47-16.13l-37-43.33Q1484,1593.12,1474.71,1600.55Z"/><path class="cls-1" d="M1437,1629.15l33.13,46.32q10.29-7.35,20.35-15l-34.4-45.38Q1446.66,1622.25,1437,1629.15Z"/><path class="cls-1" d="M1397.78,1655.49l30.38,48.18q10.71-6.76,21.19-13.8l-31.76-47.27Q1407.8,1649.19,1397.78,1655.49Z"/><path class="cls-1" d="M1357.1,1679.56l27.56,49.84q11.07-6.12,21.94-12.56l-29-49Q1367.45,1673.84,1357.1,1679.56Z"/><path class="cls-1" d="M747.34,1812.74q12.27,3,24.66,5.74l12.11-55.65q-11.58-2.52-23.06-5.38Z"/><path class="cls-1" d="M1510.75,1569.8l38.14,42.29q9.42-8.49,18.55-17.24l-39.37-41.15Q1519.54,1561.86,1510.75,1569.8Z"/><path class="cls-1" d="M698.52,1799.07q12.09,3.78,24.33,7.19l15.32-54.85q-11.4-3.18-22.67-6.7Z"/><path class="cls-1" d="M650.49,1782.57q11.87,4.47,23.9,8.6l18.53-53.85q-11.26-3.87-22.36-8Z"/><path class="cls-1" d="M796.79,1823.5q12.42,2.34,25,4.32l8.9-56.25q-11.71-1.85-23.32-4Z"/><path class="cls-1" d="M1043.12,1777.54l5.69,56.66q12.63-1.26,25.15-2.89l-7.32-56.47Q1054.92,1776.36,1043.12,1777.54Z"/><path class="cls-1" d="M603.51,1763.31q11.58,5.14,23.37,10l21.58-52.71q-11-4.49-21.81-9.31Z"/><path class="cls-1" d="M948.54,1781.62l-.79,56.94q6.11.09,12.25.08,6.54,0,13.08-.09l-.86-57Q960.39,1781.78,948.54,1781.62Z"/><path class="cls-1" d="M995.88,1780.92l2.43,56.91q12.69-.55,25.27-1.45l-4.05-56.81Q1007.75,1780.43,995.88,1780.92Z"/><path class="cls-1" d="M897.18,1836.43q12.62.88,25.3,1.43l2.38-56.9q-11.86-.49-23.63-1.34Z"/><path class="cls-1" d="M846.84,1831.42q12.51,1.61,25.13,2.86l5.64-56.66q-11.83-1.18-23.56-2.69Z"/><path class="cls-1" d="M1781.32,934.87l56.92-1.71q-.39-12.7-1.12-25.29l-56.86,3.33Q1781,923,1781.32,934.87Z"/><path class="cls-1" d="M1778.55,887.59l56.73-5q-1.11-12.64-2.56-25.17L1776.15,864Q1777.52,875.76,1778.55,887.59Z"/><path class="cls-1" d="M1773.08,840.56l56.35-8.24q-1.85-12.54-4-25l-56.1,9.83Q1771.36,828.81,1773.08,840.56Z"/><path class="cls-1" d="M583.86,1690.75l-26.11,50.61q11.26,5.82,22.72,11.31l24.63-51.35Q594.39,1696.18,583.86,1690.75Z"/><path class="cls-1" d="M1781.69,958.51V960q0,11.88-.34,23.69l56.94,1.61q.35-12.6.35-25.3v-1.49Z"/><path class="cls-1" d="M1764.92,793.94l55.77-11.51q-2.57-12.4-5.44-24.69l-55.44,13Q1762.53,782.3,1764.92,793.94Z"/><path class="cls-1" d="M1684.7,572.35l50.19-26.91q-6-11.15-12.26-22.09l-49.4,28.34Q1679.11,561.93,1684.7,572.35Z"/><path class="cls-1" d="M1705.81,614.59l51.65-24q-5.31-11.49-11-22.77l-50.94,25.47Q1700.84,603.88,1705.81,614.59Z"/><path class="cls-1" d="M1778.68,1031l56.74,4.89q1.08-12.58,1.79-25.27l-56.85-3.21Q1779.7,1019.21,1778.68,1031Z"/><path class="cls-1" d="M1635.33,491.77l46.78-32.48q-7.23-10.4-14.73-20.56l-45.82,33.81Q1628.58,482.05,1635.33,491.77Z"/><path class="cls-1" d="M1544.94,1537.09l40.55,40q8.88-9,17.51-18.26L1561.33,1520Q1553.26,1528.67,1544.94,1537.09Z"/><path class="cls-1" d="M1661.17,531.36l48.58-29.74q-6.62-10.8-13.53-21.38l-47.67,31.15Q1655,521.28,1661.17,531.36Z"/><path class="cls-1" d="M1635.63,1427.8l46.76,32.5q7.24-10.42,14.17-21.06l-47.72-31.08Q1642.38,1418.07,1635.63,1427.8Z"/><path class="cls-1" d="M1661.51,1388.08l48.56,29.76Q1716.7,1407,1723,1396l-49.42-28.3Q1667.7,1378,1661.51,1388.08Z"/><path class="cls-1" d="M1577.24,1502.41l42.73,37.64q8.37-9.51,16.47-19.26l-43.81-36.39Q1585.05,1493.51,1577.24,1502.41Z"/><path class="cls-1" d="M1773.29,1078l56.36,8.11q1.8-12.51,3.25-25.12l-56.58-6.47Q1775,1066.35,1773.29,1078Z"/><path class="cls-1" d="M1607.48,1466l44.87,35.07q7.8-10,15.31-20.16l-45.82-33.81Q1614.79,1456.62,1607.48,1466Z"/><path class="cls-1" d="M1685.06,1347l50.23,26.85q6-11.16,11.64-22.53l-51-25.41Q1690.67,1336.51,1685.06,1347Z"/><path class="cls-1" d="M1765.19,1124.65,1821,1136q2.52-12.39,4.69-24.9l-56.11-9.73Q1767.56,1113.09,1765.19,1124.65Z"/><path class="cls-1" d="M1754.42,1170.79l55.06,14.53q3.23-12.22,6.12-24.58l-55.46-12.93Q1757.44,1159.36,1754.42,1170.79Z"/><path class="cls-1" d="M1706.21,1304.49l51.71,23.88q5.31-11.5,10.31-23.18l-52.36-22.4Q1711.19,1293.72,1706.21,1304.49Z"/><path class="cls-1" d="M1741,1216.15l54.12,17.75q3.93-12,7.54-24.18L1748,1193.56Q1744.67,1204.93,1741,1216.15Z"/><path class="cls-1" d="M270.77,512.44,223,481.4q-6.9,10.62-13.5,21.43l48.59,29.69Q264.31,522.4,270.77,512.44Z"/><path class="cls-1" d="M159.69,772.92,104.24,760q-2.88,12.32-5.4,24.77L154.66,796Q157,784.42,159.69,772.92Z"/><path class="cls-1" d="M186.49,682.05l-53.6-19.25q-4.29,12-8.24,24l54.13,17.7Q182.49,693.21,186.49,682.05Z"/><path class="cls-1" d="M204.3,1283.2l-52.36,22.4q5,11.64,10.28,23.08l51.67-23.92Q209,1294.07,204.3,1283.2Z"/><path class="cls-1" d="M171.77,727.12,117.14,711q-3.57,12.12-6.81,24.38l55.06,14.53Q168.44,738.46,171.77,727.12Z"/><path class="cls-1" d="M271.06,1408l-47.7,31.12q6.9,10.59,14.11,21l46.78-32.46Q277.52,1417.92,271.06,1408Z"/><path class="cls-1" d="M542.37,1667.8l-29,49q10.9,6.45,22,12.6l27.56-49.83Q552.56,1673.84,542.37,1667.8Z"/><path class="cls-1" d="M224.12,1326l-51,25.41q5.66,11.31,11.6,22.43L235,1347Q229.4,1336.61,224.12,1326Z"/><path class="cls-1" d="M326.92,436.14l-43.86-36.32q-8.08,9.74-15.88,19.73l44.89,35.05Q319.36,445.27,326.92,436.14Z"/><path class="cls-1" d="M172.17,1194.26l-54.59,16.2q3.6,12.18,7.57,24.2l54.09-17.82Q175.54,1205.63,172.17,1194.26Z"/><path class="cls-1" d="M358.16,400.55l-41.67-38.81q-8.64,9.28-17,18.81l42.81,37.56Q350.1,409.22,358.16,400.55Z"/><path class="cls-1" d="M297.74,473.49l-45.85-33.77q-7.53,10.21-14.73,20.63L284,492.78Q290.72,483,297.74,473.49Z"/><path class="cls-1" d="M714.1,175.72l-17-54.34q-12.1,3.8-24,7.92l18.59,53.83Q702.77,179.28,714.1,175.72Z"/><path class="cls-1" d="M223.71,594.78l-51-25.34q-5.64,11.35-11,22.89l51.7,23.85Q218.44,605.4,223.71,594.78Z"/><path class="cls-1" d="M246.05,552.94l-49.44-28.27q-6.3,11-12.27,22.21l50.24,26.81Q240.18,563.22,246.05,552.94Z"/><path class="cls-1" d="M203.85,637.85l-52.4-22.3q-5,11.66-9.61,23.48l53,20.81Q199.2,648.77,203.85,637.85Z"/><path class="cls-1" d="M246.43,1367.71,197,1396q6.28,11,12.88,21.78L258.45,1388Q252.29,1378,246.43,1367.71Z"/><path class="cls-1" d="M358.39,1519.7l-41.67,38.83q8.64,9.26,17.5,18.25l40.57-40Q366.47,1528.36,358.39,1519.7Z"/><path class="cls-1" d="M391.63,1553.41l-39.34,41.17q9.12,8.73,18.48,17.22L409,1569.58Q400.2,1561.62,391.63,1553.41Z"/><path class="cls-1" d="M501.8,277.81,470,230.55q-10.51,7.06-20.78,14.43l33.14,46.31Q492,284.4,501.8,277.81Z"/><path class="cls-1" d="M583.1,229.65,557,179.06Q545.7,184.88,534.67,191l27.6,49.81Q572.59,235.09,583.1,229.65Z"/><path class="cls-1" d="M463.68,1614.93l-34.42,45.37q10.1,7.67,20.41,15L482.76,1629Q473.13,1622.09,463.68,1614.93Z"/><path class="cls-1" d="M426.78,1585.21l-37,43.3q9.63,8.23,19.51,16.17L445,1600.34Q435.8,1592.9,426.78,1585.21Z"/><path class="cls-1" d="M541.78,252.55l-29-49q-10.86,6.45-21.54,13.19l30.43,48.14Q531.6,258.58,541.78,252.55Z"/><path class="cls-1" d="M327.17,1484.16l-43.85,36.32q8.07,9.76,16.43,19.26l42.79-37.58Q334.73,1493.27,327.17,1484.16Z"/><path class="cls-1" d="M298,1446.86l-45.83,33.8q7.5,10.18,15.28,20.13l44.87-35.06Q305,1456.4,298,1446.86Z"/><path class="cls-1" d="M463.35,305.33,428.9,260q-10.08,7.65-19.93,15.59l35.75,44.33Q453.93,312.48,463.35,305.33Z"/><path class="cls-1" d="M502.24,1642.48l-31.75,47.28q10.53,7.07,21.23,13.83l30.41-48.15Q512.08,1649.1,502.24,1642.48Z"/><path class="cls-1" d="M669.34,191.19l-20.12-53.28q-11.88,4.49-23.58,9.31l21.69,52.66Q658.25,195.38,669.34,191.19Z"/><path class="cls-1" d="M625.65,209.17l-23.2-52q-11.55,5.15-22.92,10.61l24.7,51.32Q614.85,214,625.65,209.17Z"/><path class="cls-1" d="M426.5,335l-37-43.32q-9.63,8.22-19,16.72l38.22,42.22Q417.49,342.73,426.5,335Z"/><path class="cls-1" d="M179,960a776.72,776.72,0,0,0,57,292.85C352.1,1538.82,632.86,1741,960,1741c324.55,0,603.47-199,721.22-481.39A776.86,776.86,0,0,0,1741,960c0-229.75-99.74-436.63-258.17-579.67C1344.31,255.25,1160.9,179,960,179c-184.33,0-353.91,64.23-487.64,171.43C293.64,493.66,179,713.67,179,960Zm92.12,312.74a12,12,0,0,0,2.41.64c6.69,1,6.69,1,90.78,12.13,83.06,11,248.41,32.77,583.51,77.13v24.2c-190.14-25.16-331.31-43.68-419.47-55-37.45-4.81-60.71-7.73-74.6-9.42-6.86-.84-12.3-1.5-16.62-1.71l-.54-.1,0,.08c-9.81-.44-13.55,1.73-14.79,10-.63,4.1.87,12.33,11,14.07,7.14,1.21,13.21,2.26,17.93,1.9,36.61,4.46,149.66,18.85,497.09,64.84v305C647.26,1711.67,388.74,1530.84,271.1,1272.74ZM748.35,705.42h423.3v56.26c0,128.56-95,233.16-211.65,233.16-44,0-84.91-14.89-118.81-40.31v-.09h-.11c-55.93-42-92.73-112.73-92.73-192.76ZM960,1019.25a218.94,218.94,0,0,0,108.15-28.74v77.27l-109.93,45.6-117-49.81V984.1C876.12,1006.4,916.7,1019.25,960,1019.25Zm-6.63,118.6a12.25,12.25,0,0,0,9.47,0l141.49-58.7,184.72,60.11c49.64,17.69,84.78,57.94,91.72,105.06a13,13,0,0,0,.6,2.36l13.19,36.49L960,1339.64c-196.8-26.05-335.72-44.42-434.21-57.43l12.82-35.49a13,13,0,0,0,.6-2.36c6.94-47.12,42.08-87.37,91.39-104.95l185-60.2Zm18.83,578.61v-305c335.62-43.57,463.26-59.71,508.63-65.18a12.18,12.18,0,0,0,5,.32c24-3.37,31.26-4.39,29.6-16.69-1.63-12.14-8.28-11.35-33-8.4-14.58,1.74-38.86,4.74-77.71,9.65-88.11,11.13-233.68,29.87-432.52,55.69v-24.2l675.67-87.75C1529.78,1531.85,1271.89,1711.69,972.2,1716.46ZM960,203.39c179.28,0,344.16,62.72,474,167.31,172.24,138.8,282.66,351.38,282.66,589.3a752.53,752.53,0,0,1-57.49,289.2,12.11,12.11,0,0,0-2.82,0l-64.33,8.35-18.46-98.94a12.16,12.16,0,0,0-.69-2.35,176.34,176.34,0,0,0-81.62-89.84l-51-26.67a12.46,12.46,0,0,0-1.43-.56V990.34c35.15-30.25,57.82-77,57.82-129.39V795.8h-.1l-.14-32.68c0-81.55-66.35-147.9-147.91-147.9a146.93,146.93,0,0,0-58.68,12.21l.25,26.93a123.45,123.45,0,0,1,181.93,108.76l.14,35.73-66.21-30.3a12.2,12.2,0,0,0-16.33,6.38l-10,24-127.88-57.1c-.47,8.32-1.27,16.89-2.43,25.64L1381,826.27a12.21,12.21,0,0,0,16.23-6.43l10-23.85,65,29.74V861c0,77.53-57.06,140.6-127.2,140.6-65.2,0-119-54.52-126.3-124.48a306.69,306.69,0,0,1-17.84,34.8,165.79,165.79,0,0,0,53.05,80.67v62.25a12.2,12.2,0,0,0,7.5,11.26l80,33.43a12.16,12.16,0,0,0,9.49,0l83.1-35.38,45.89,24a152,152,0,0,1,69.86,76.28l18,96.38-60,7.79L1419.35,1280l-14.62-40.43c-8.67-55.52-49.75-102.67-107.8-123.36l-189.34-61.62a12.29,12.29,0,0,0-8.45.34l-6.59,2.73v-83c62.43-46.4,103.51-124.56,103.51-213V705.42h33.26V681H692.92v24.41h31v56.26c0,83.29,36.46,157.44,92.84,204.55V1054a12.49,12.49,0,0,0-4.37.56l-189.66,61.73C565,1136.89,523.94,1184,515.27,1239.56L501,1278.94l-88.24-11.65-45.31-6-15-2,17.72-95a152,152,0,0,1,69.86-76.28l45.89-24,83.1,35.38a12.16,12.16,0,0,0,9.49,0l80-33.43a12.2,12.2,0,0,0,7.5-11.26V992.54a165.79,165.79,0,0,0,53-80.67,306.69,306.69,0,0,1-17.84-34.8c-7.27,70-61.1,124.48-126.3,124.48-70.14,0-127.2-63.07-127.2-140.6V825.73l65-29.74,10,23.85a12.21,12.21,0,0,0,16.23,6.43l131.77-58.84c-1.16-8.75-2-17.32-2.43-25.64l-127.88,57.1-10-24a12.19,12.19,0,0,0-16.33-6.38l-66.21,30.3.14-35.73A123.45,123.45,0,0,1,630,654.36l.25-26.93a146.93,146.93,0,0,0-58.68-12.21c-81.56,0-147.91,66.35-147.91,147.9l-.14,32.68h-.1V861c0,52.44,22.67,99.14,57.82,129.39v48.87a12.46,12.46,0,0,0-1.43.56l-51,26.67a176.34,176.34,0,0,0-81.62,89.84,12.16,12.16,0,0,0-.69,2.35l-18.19,97.52c-44.83-5.92-45.82-6.07-51-6.89a12.25,12.25,0,0,0-13.21,7.56A752.36,752.36,0,0,1,203.39,960c0-251.24,123.13-474.23,312.17-611.91A752.48,752.48,0,0,1,960,203.39Zm318.29,805.52a139.27,139.27,0,0,0,136.06-1.41v38.41L1346.07,1075l-67.78-28.32ZM575,1026a140.49,140.49,0,0,0,66.68-17.05v37.75L573.93,1075l-68.28-29.07V1007.5A140.8,140.8,0,0,0,575,1026Z"/><path class="cls-1" d="M1229.32,640.34H1204l1.28-44.44c0-98.3-61.75-187.77-153.65-222.63l-7.1-2.69a237.86,237.86,0,0,0-169,.05l-6.82,2.59c-91.83,34.9-153.52,124.35-153.52,222.58v6.25l-1.24,38.29h-21v24.4h536.4Zm-489.78-37.9V595.8a211.08,211.08,0,0,1,7.27-54.33c18.12,25.33,27.38,48.66,27.38,69.47v29.4H738.32Zm16.74-88.82c22.3-53.05,65.48-96.46,121.05-117.58l6.83-2.6a213.59,213.59,0,0,1,151.71,0l7.1,2.69c55.51,21.06,98.67,64.36,121,117.18-28.23,34.79-42.59,67.65-42.59,97.67v29.4H798.6v-29.4C798.6,581,784.33,548.28,756.28,513.62Zm389.53,97.32c0-20.94,9.36-44.42,27.69-69.93a209.85,209.85,0,0,1,7.38,54.54l-1.29,44.79h-33.78Z"/><path class="cls-1" d="M951.78,603.09l85.79-85.78-85.79-85.8L900.25,483l34.26,34.28-34.26,34.26ZM934.77,483l17-17,51.28,51.29-51.28,51.27-17-17L969,517.31Z"/><path class="cls-1" d="M952.57,1275.32a37.12,37.12,0,1,0-37.12-37.11A37.15,37.15,0,0,0,952.57,1275.32Zm0-49.82a12.71,12.71,0,1,1-12.71,12.71A12.72,12.72,0,0,1,952.57,1225.5Z"/></g></g></svg>