<svg version="1" id="Layer_1" xmlns="http://www.w3.org/2000/svg" viewBox="0 0 648 63"><style>.st0{fill:#182978}</style><path transform="rotate(45 16 16)" class="st0" d="M5 5h22v22H5z"/><path transform="rotate(45 31 31)" fill="#68c" d="M20 20h22v22H20z"/><path transform="rotate(45 16 47)" fill="#acbfe6" d="M5 36h22v22H5z"/><path class="st0" d="M130 25c-1-6-3-10-13-10-11 0-15 6-15 17 0 8 1 16 16 16 10 0 13-5 14-10h32c-3 15-20 24-45 24-31 0-50-12-50-31 0-18 21-30 47-30 28 0 44 9 47 24h-33zm186 9V3h25v57h-29l-26-31v31h-25V3h29zM430 3h73v17h-24v40h-25V20h-24zm109 17l-8 18h18l-10-18zm-46 40l32-57h29l32 57h-29l-3-7h-29l-3 7h-29zM208 20l-9 18h18l-9-18zm-46 40l31-57h30l31 57h-29l-3-7h-29l-3 7h-28zm231-40l-9 18h18l-9-18zm-46 40l31-57h30l31 57h-28l-4-7h-29l-3 7h-28zm245 0V3h23v37h33v20z"/></svg>