<?xml version="1.0" encoding="utf-8"?>
<!-- Generator: Adobe Illustrator 24.2.3, SVG Export Plug-In . SVG Version: 6.00 Build 0)  -->
<svg version="1.1" id="Layer_1" xmlns="http://www.w3.org/2000/svg" xmlns:xlink="http://www.w3.org/1999/xlink" x="0px" y="0px"
	 viewBox="0 0 645.27 170.71" style="enable-background:new 0 0 645.27 170.71;" xml:space="preserve">
<style type="text/css">
	.st0{fill:#293274;}
	.st1{fill:#6988C5;}
	.st2{fill:#ADBFE3;}
</style>
<g>
	<g>
		<path class="st0" d="M95.02,109.44V53.79h40.73c12.75,0,21.85,1.25,27.3,3.74c5.45,2.49,8.17,6.59,8.17,12.28
			c0,3.4-1.12,6.22-3.35,8.46c-2.23,2.24-5.68,4.02-10.34,5.33c4.74,0.66,8.18,1.95,10.34,3.87c2.16,1.93,3.31,4.75,3.47,8.48
			l0.46,7.75c0,0.05,0.02,0.11,0.06,0.19c0.12,2.22,0.92,3.38,2.43,3.48v2.08h-27.56c-0.5-1.33-0.88-2.5-1.13-3.49
			c-0.25-1-0.38-1.77-0.38-2.32v-5.55c0-2.87-0.87-4.89-2.6-6.06c-1.73-1.17-4.74-1.76-9.01-1.76H122v19.19H95.02z M122,77.71h12.42
			c4.35,0,7.36-0.38,9.01-1.15c1.66-0.77,2.48-2.11,2.48-4.02c0-1.96-0.83-3.33-2.48-4.1c-1.66-0.77-4.89-1.15-9.71-1.15H122V77.71z
			"/>
		<path class="st0" d="M185.32,109.44V53.79h68v13.34h-40.67v7.41h34.38v12.77h-34.38v8.61h42.34v13.53H185.32z"/>
		<path class="st0" d="M267.75,109.44V53.79h25.94l23.86,25.88c0.73,0.73,1.51,1.76,2.34,3.1s1.7,2.95,2.63,4.84
			c-0.23-0.98-0.4-2.07-0.52-3.25c-0.12-1.18-0.17-2.62-0.17-4.31V53.79h26.05v55.65h-26.05l-23.86-25.69
			c-0.73-0.76-1.53-1.83-2.4-3.21c-0.87-1.39-1.74-2.97-2.63-4.76c0.27,0.98,0.46,2.01,0.58,3.08c0.12,1.07,0.17,2.58,0.17,4.52
			v26.07H267.75z"/>
		<path class="st0" d="M364.05,109.44V53.79h27.09v18.44l24.49-18.44h31.72l-30.39,20.52l34.31,35.14H418.7l-20.8-22.29l-6.76,4.57
			v17.72H364.05z"/>
		<path class="st0" d="M447.01,109.44l29.92-55.65h27.67l29.92,55.65h-27.09l-3.18-7.37h-27.09l-3.29,7.37H447.01z M482.13,90.4
			h17.16l-8.49-19.27L482.13,90.4z"/>
		<path class="st0" d="M538.34,92.1h26.57c0.73,2.01,2.06,3.46,3.99,4.34s4.79,1.32,8.61,1.32c3.2,0,5.71-0.36,7.54-1.08
			c1.83-0.72,2.74-1.71,2.74-2.97c0-2.01-3.83-3.65-11.5-4.91c-1.54-0.25-2.71-0.44-3.52-0.57c-6.28-1.06-11.27-2.02-14.99-2.89
			c-3.72-0.87-6.42-1.68-8.12-2.44c-3.27-1.54-5.73-3.38-7.37-5.52c-1.64-2.14-2.46-4.58-2.46-7.33c0-5.52,3.18-9.85,9.53-13
			c6.35-3.15,15.1-4.72,26.23-4.72c10.94,0,19.54,1.51,25.82,4.52s9.82,7.32,10.63,12.94h-25.94c-0.42-1.64-1.53-2.86-3.32-3.67
			c-1.79-0.81-4.34-1.21-7.65-1.21c-2.93,0-5.1,0.32-6.53,0.94c-1.42,0.63-2.14,1.59-2.14,2.87c0,1.84,3.73,3.38,11.21,4.61
			c0.65,0.13,1.16,0.21,1.5,0.26c1.08,0.18,2.71,0.44,4.91,0.79c9.9,1.64,16.37,3.12,19.41,4.46c3.77,1.64,6.53,3.5,8.26,5.59
			c1.73,2.09,2.6,4.56,2.6,7.4c0,6.15-3.28,10.87-9.85,14.17c-6.57,3.3-15.97,4.95-28.22,4.95c-11.29,0-20.23-1.65-26.83-4.95
			C542.86,102.75,539.15,98.1,538.34,92.1z"/>
	</g>
	<path class="st0" d="M42.18,50.41l15.56,15.56L42.18,81.52L26.62,65.96L42.18,50.41z"/>
	<path class="st1" d="M57.18,65.41l15.56,15.56L57.18,96.52L41.62,80.96L57.18,65.41z"/>
	<path class="st2" d="M42.18,81.41l15.56,15.56l-15.56,15.56L26.62,96.96L42.18,81.41z"/>
</g>
</svg>
